<?xml version="1.0" encoding="UTF-8"?>
<svg width="42px" height="59px" viewBox="0 0 42 59" version="1.1" xmlns="http://www.w3.org/2000/svg" xmlns:xlink="http://www.w3.org/1999/xlink">
    <!-- Generator: sketchtool 49.3 (51167) - http://www.bohemiancoding.com/sketch -->
    <title>5FCAB473-2D0D-4F63-8535-699A1A19A3FB</title>
    <desc>Created with sketchtool.</desc>
    <defs></defs>
    <g id="Page-1" stroke="none" stroke-width="1" fill="none" fill-rule="evenodd" opacity="0.200000003">
        <g id="branding-lp-[3" transform="translate(-24.000000, -6911.000000)" fill="#172C57">
            <g id="przejrzystosc" transform="translate(0.000000, 6808.000000)">
                <g id="2" transform="translate(24.000000, 93.000000)">
                    <path d="M0,61.386 C0,40.569 28.107,41.703 28.107,27.69 C28.107,23.154 24.705,20.238 19.764,20.238 C15.228,20.238 12.231,22.587 12.231,24.774 L12.231,27.285 L2.673,27.285 L2.673,21.615 C2.673,14.001 12.717,10.518 20.169,10.518 C30.213,10.518 38.799,16.836 38.799,27.528 C38.799,46.968 11.016,48.102 11.016,58.551 C11.016,59.604 11.664,60.009 13.203,60.009 L30.051,60.009 C31.185,60.009 31.833,59.361 31.833,58.227 L31.833,54.744 L41.391,54.744 L41.391,63.492 C41.391,67.38 39.771,69 35.883,69 L5.913,69 C0.891,69 0,66.813 0,61.386 Z"></path>
                </g>
            </g>
        </g>
    </g>
</svg>