<?xml version="1.0" encoding="UTF-8"?>
<svg width="40px" height="59px" viewBox="0 0 40 59" version="1.1" xmlns="http://www.w3.org/2000/svg" xmlns:xlink="http://www.w3.org/1999/xlink">
    <!-- Generator: sketchtool 49.3 (51167) - http://www.bohemiancoding.com/sketch -->
    <title>850DDFAE-0C0A-439B-8C83-EE1C52F72B01</title>
    <desc>Created with sketchtool.</desc>
    <defs></defs>
    <g id="Page-1" stroke="none" stroke-width="1" fill="none" fill-rule="evenodd" opacity="0.200000003">
        <g id="branding-lp-[3" transform="translate(-24.000000, -7412.000000)" fill="#172C57">
            <g id="oszczednosc" transform="translate(0.000000, 7308.000000)">
                <g id="3" transform="translate(24.000000, 93.000000)">
                    <path d="M0,61.872 L5.346,53.934 C5.346,53.934 10.935,60.09 19.44,60.09 C25.11,60.09 29.241,56.526 29.241,51.504 C29.241,46.401 24.543,43.08 18.387,43.08 L14.337,43.08 L12.231,37.815 L21.951,24.774 C23.895,21.858 25.758,20.4 25.758,20.4 L25.758,20.238 C25.758,20.238 23.976,20.481 20.655,20.481 L13.446,20.481 C12.312,20.481 11.664,21.129 11.664,22.263 L11.664,25.746 L2.106,25.746 L2.106,16.998 C2.106,13.191 3.24,11.49 7.128,11.49 L38.394,11.49 L38.394,18.051 L25.191,34.575 C32.967,35.79 40.014,41.622 40.014,51.342 C40.014,60.9 32.562,69.972 19.521,69.972 C7.047,69.972 0,61.872 0,61.872 Z"></path>
                </g>
            </g>
        </g>
    </g>
</svg>