<?xml version="1.0" encoding="UTF-8"?>
<svg width="46px" height="58px" viewBox="0 0 46 58" version="1.1" xmlns="http://www.w3.org/2000/svg" xmlns:xlink="http://www.w3.org/1999/xlink">
    <!-- Generator: sketchtool 49.3 (51167) - http://www.bohemiancoding.com/sketch -->
    <title>0614F448-00A8-4AAD-A87C-4B5A5EA5CFF5</title>
    <desc>Created with sketchtool.</desc>
    <defs></defs>
    <g id="Page-1" stroke="none" stroke-width="1" fill="none" fill-rule="evenodd" opacity="0.2">
        <g id="branding-lp-[3" transform="translate(-24.000000, -7929.000000)" fill="#172C57">
            <g id="4" transform="translate(0.000000, 7808.000000)">
                <g transform="translate(24.000000, 110.000000)">
                    <path d="M0,54.501 L0,47.778 L23.814,11.49 L36.288,11.49 L36.288,45.51 L45.117,45.51 L45.117,54.501 L36.288,54.501 L36.288,69 L25.677,69 L25.677,54.501 L0,54.501 Z M25.839,45.51 L25.839,29.553 C25.839,26.718 26.244,23.316 26.244,23.316 L26.082,23.316 C26.082,23.316 24.462,26.394 23.004,28.5 L14.013,41.784 C12.474,43.971 11.097,45.591 11.097,45.591 L11.097,45.753 C11.097,45.753 13.446,45.51 16.119,45.51 L25.839,45.51 Z"></path>
                </g>
            </g>
        </g>
    </g>
</svg>