<svg xmlns="http://www.w3.org/2000/svg" xmlns:xlink="http://www.w3.org/1999/xlink" width="200" height="200" viewBox="0 0 200 200">
    <defs>
        <circle id="a" cx="100" cy="100" r="100"/>
        <path id="c" d="M106.491 62.995c5.219-4.935 4.838-15.714.608-19.375 3.364-8.945 7.678-19.356 5.857-28.475C110.722 3.965 94.847 0 81.93 0 71.914 0 59.746 2.525 55.91 9.436c-3.856.426-6.833 2.021-8.867 4.76-5.606 7.569-1.777 19.187.981 29.3-4.23 3.67-4.734 14.564.485 19.499.716 10.255 6.78 16.54 9.616 18.948v15.552c-2.719 1.014-5.38 1.996-7.97 2.945-22.416 8.24-38.614 14.202-43.354 23.69C.077 137.568 0 151.195 0 151.77A3.23 3.23 0 0 0 3.23 155h148.54a3.23 3.23 0 0 0 3.23-3.23c0-.574-.077-14.201-6.8-27.64-4.748-9.495-20.945-15.45-43.362-23.69-2.583-.956-5.25-1.931-7.963-2.945V81.943c2.835-2.415 8.9-8.693 9.616-18.948z"/>
    </defs>
    <g fill="none" fill-rule="evenodd">
        <mask id="b" fill="#fff">
            <use xlink:href="#a"/>
        </mask>
        <use fill="#D8D8D8" xlink:href="#a"/>
        <g mask="url(#b)">
            <g transform="translate(22.11 45.226)">
                <mask id="d" fill="#fff">
                    <use xlink:href="#c"/>
                </mask>
                <use fill="#000" fill-rule="nonzero" xlink:href="#c"/>
                <g fill="#F3F4F6" mask="url(#d)">
                    <path d="M-77.5-51.667h284v284h-284z"/>
                </g>
            </g>
            <path d="M22.11 45.226h155v155h-155z"/>
        </g>
    </g>
</svg>
