<?xml version="1.0" encoding="UTF-8"?>
<svg width="96px" height="34px" viewBox="0 0 96 34" version="1.1" xmlns="http://www.w3.org/2000/svg" xmlns:xlink="http://www.w3.org/1999/xlink">
    <!-- Generator: sketchtool 49.3 (51167) - http://www.bohemiancoding.com/sketch -->
    <title>0854D679-2CFB-439C-BF8B-886340F6678C</title>
    <desc>Created with sketchtool.</desc>
    <defs></defs>
    <g id="Logo" stroke="none" stroke-width="1" fill="none" fill-rule="evenodd">
        <g id="/logo-contrast" fill-rule="nonzero">
            <g id="LENDI-LOGO-FULLCOLOR_V2-RGB">
                <path d="M0,0 L2.95263158,0 C3.73334517,-1.25548321e-16 4.48208277,0.310137267 5.03413065,0.862185144 C5.58617852,1.41423302 5.89631579,2.16297062 5.89631579,2.94368421 L5.89631579,24.8915789 C5.89631579,27.5131579 6.79105263,28.1663158 8.33,28.1663158 C8.92788448,28.1591407 9.50375415,28.3916359 9.92906685,28.8119054 C10.3543796,29.2321749 10.5937273,29.8052304 10.5936842,30.4031579 L10.5936842,33.1723684 C10.5936842,33.1723684 8.31657895,33.4676316 7.33236842,33.4676316 C4.07105263,33.4542105 0,32.6131579 0,25.7818421 L0,0 Z" id="Shape" fill="#FFFFFF"></path>
                <path d="M22.9052632,8.79526316 C29.7813158,8.79526316 33.4810526,13.8013158 33.4810526,20.1181579 C33.4810526,20.8205263 33.3423684,22.4086842 33.3423684,22.4086842 L16.8702632,22.4086842 C17.2460526,26.5736842 20.4715789,28.7255263 24.0281579,28.7255263 C25.5839789,28.6938364 27.1128225,28.3131543 28.5018421,27.6115789 C29.9213346,26.9228749 31.6313634,27.4777457 32.3760526,28.8686842 L33.1813158,30.3673684 C30.4842266,32.5968486 27.0889383,33.8067368 23.5897368,33.7852632 C15.6802632,33.7852632 10.7681579,28.0768421 10.7681579,21.2902632 C10.7860526,13.9444737 15.7921053,8.79526316 22.9052632,8.79526316 Z M27.4907895,18.3421053 C27.3968421,15.1121053 25.3836842,13.3807895 22.7665789,13.3807895 C19.7244737,13.3807895 17.6173684,15.2507895 17.0581579,18.3421053 L27.4907895,18.3421053 Z" id="Shape" fill="#FFFFFF"></path>
                <path d="M50.6465789,8.79526316 C47.277695,8.69962455 44.1223473,10.4400335 42.4060526,13.3405263 L42.4060526,12.3026316 C42.4060526,10.6768797 41.0881203,9.35894737 39.4623684,9.35894737 L36.5097368,9.35894737 L36.5097368,30.2778947 C36.5097368,31.9036466 37.8276692,33.2215789 39.4534211,33.2215789 L42.4105263,33.2215789 L42.4105263,22.27 C42.379734,21.1940724 42.5217126,20.1201699 42.8310526,19.0892105 C43.7257895,16.235 46.0610526,14.2218421 49.2418421,14.2218421 C52.2839474,14.2218421 53.0310526,16.1857895 53.0310526,19.0892105 L53.0310526,30.2734211 C53.0310526,31.899173 54.3489849,33.2171053 55.9747368,33.2171053 L58.9273684,33.2171053 L58.9273684,17.8947368 C58.9318421,11.5555263 55.9210526,8.79526316 50.6465789,8.79526316 Z" id="Shape" fill="#FFFFFF"></path>
                <path d="M79.7165789,0 L79.7165789,11.8328947 C79.7165789,11.8328947 78.03,8.79526316 72.7913158,8.79526316 C66.4744737,8.79526316 61.9828947,13.7163158 61.9828947,21.2902632 C61.9828947,28.6852632 66.0986842,33.7852632 72.5586842,33.7852632 C76.7952632,33.7852632 78.9560526,31.3515789 79.7165789,30.2465789 L79.7165789,30.2778947 C79.7165789,31.9036466 81.0345113,33.2215789 82.6602632,33.2215789 L85.6128947,33.2215789 L85.6128947,2.94368421 C85.6128947,1.31793231 84.2949624,9.95485929e-17 82.6692105,0 L79.7165789,0 Z M73.9007895,28.7747368 C70.3934211,28.7747368 67.9597368,25.8265789 67.9597368,21.2902632 C67.9597368,16.5660526 70.6752632,13.8952632 73.95,13.8952632 C77.9271053,13.8952632 79.8910526,17.5457895 79.8910526,21.2410526 C79.9044737,26.5289474 77.0055263,28.7747368 73.9186842,28.7747368 L73.9007895,28.7747368 Z" id="Shape" fill="#FFFFFF"></path>
                <path d="M89.1739474,9.35894737 L92.1265789,9.35894737 C93.7523308,9.35894737 95.0702632,10.6768797 95.0702632,12.3026316 L95.0702632,33.2215789 L92.1176316,33.2215789 C90.4918797,33.2215789 89.1739474,31.9036466 89.1739474,30.2778947 L89.1739474,9.35894737 Z" id="Shape" fill="#FFFFFF"></path>
                <path d="M95.0702632,3.41789474 C95.0702632,1.53765584 93.5460284,0.0134210526 91.6657895,0.0134210526 C89.7855506,0.0134210526 88.2613158,1.53765584 88.2613158,3.41789474 C88.2613158,5.29813363 89.7855506,6.82236842 91.6657895,6.82236842 L92.1131579,6.82236842 C93.1610136,6.81790643 94.1878598,7.1161734 95.0702632,7.68131579 L95.0702632,3.41789474 Z" id="Shape" fill="#22C7FA"></path>
            </g>
        </g>
    </g>
</svg>