<?xml version="1.0" encoding="UTF-8"?>
<svg width="40px" height="40px" viewBox="0 0 40 40" version="1.1" xmlns="http://www.w3.org/2000/svg" xmlns:xlink="http://www.w3.org/1999/xlink">
    <!-- Generator: sketchtool 49.3 (51167) - http://www.bohemiancoding.com/sketch -->
    <title>32ED0773-55AB-4462-B6B1-2107CBF2F33B</title>
    <desc>Created with sketchtool.</desc>
    <defs>
        <path d="M3,6 C1.34314575,6 0,4.65685425 0,3 C0,1.34314575 1.34314575,0 3,0 C4.65685425,0 6,1.34314575 6,3 C6,4.65685425 4.65685425,6 3,6 Z M12,6 C10.3431458,6 9,4.65685425 9,3 C9,1.34314575 10.3431458,0 12,0 C13.6568542,0 15,1.34314575 15,3 C15,4.65685425 13.6568542,6 12,6 Z M21,6 C19.3431458,6 18,4.65685425 18,3 C18,1.34314575 19.3431458,0 21,0 C22.6568542,0 24,1.34314575 24,3 C24,4.65685425 22.6568542,6 21,6 Z" id="path-1"></path>
    </defs>
    <g id="Icons" stroke="none" stroke-width="1" fill="none" fill-rule="evenodd">
        <g id="icons-/-nav-dots">
            <g id="navigation-show-more-1" transform="translate(8.000000, 17.000000)">
                <g id="dots">
                    <mask id="mask-2" fill="white">
                        <use xlink:href="#path-1"></use>
                    </mask>
                    <use id="Mask" fill="#000000" fill-rule="nonzero" xlink:href="#path-1"></use>
                    <g id="snow" mask="url(#mask-2)" fill="#FFFFFF">
                        <g transform="translate(-10.000000, -20.000000)" id="bg">
                            <rect x="0" y="0" width="44" height="44"></rect>
                        </g>
                    </g>
                </g>
            </g>
        </g>
    </g>
</svg>